<svg width="48" height="48" viewBox="0 0 48 48" fill="none" xmlns="http://www.w3.org/2000/svg" xmlns:xlink="http://www.w3.org/1999/xlink">
<path d="M32.667,17.5C32.667,19.799 31.754,22.003 30.128,23.628C28.503,25.254 26.299,26.167 24,26.167C21.701,26.167 19.497,25.254 17.872,23.628C16.246,22.003 15.333,19.799 15.333,17.5C15.333,15.201 16.246,12.997 17.872,11.372C19.497,9.746 21.701,8.833 24,8.833C26.299,8.833 28.503,9.746 30.128,11.372C31.754,12.997 32.667,15.201 32.667,17.5ZM28.333,17.5C28.333,18.649 27.877,19.752 27.064,20.564C26.252,21.377 25.149,21.833 24,21.833C22.851,21.833 21.749,21.377 20.936,20.564C20.123,19.752 19.667,18.649 19.667,17.5C19.667,16.351 20.123,15.249 20.936,14.436C21.749,13.623 22.851,13.167 24,13.167C25.149,13.167 26.252,13.623 27.064,14.436C27.877,15.249 28.333,16.351 28.333,17.5Z" clip-rule="evenodd" fill-rule="evenodd" fill="#FFFFFF"/>
<path d="M24,0.167C10.838,0.167 0.167,10.838 0.167,24C0.167,37.162 10.838,47.833 24,47.833C37.162,47.833 47.833,37.162 47.833,24C47.833,10.838 37.162,0.167 24,0.167ZM4.5,24C4.5,28.528 6.045,32.697 8.634,36.008C10.452,33.62 12.798,31.685 15.488,30.353C18.178,29.022 21.139,28.331 24.141,28.333C27.103,28.33 30.027,29.004 32.69,30.302C35.353,31.601 37.685,33.49 39.507,35.826C41.384,33.363 42.648,30.49 43.194,27.442C43.74,24.394 43.553,21.26 42.647,18.299C41.742,15.339 40.144,12.636 37.987,10.415C35.829,8.194 33.174,6.519 30.241,5.528C27.307,4.537 24.18,4.259 21.118,4.717C18.056,5.174 15.147,6.354 12.631,8.16C10.115,9.965 8.066,12.343 6.652,15.098C5.238,17.852 4.5,20.904 4.5,24ZM24,43.5C19.524,43.507 15.182,41.967 11.711,39.141C13.108,37.14 14.968,35.507 17.132,34.38C19.296,33.253 21.701,32.665 24.141,32.667C26.55,32.665 28.926,33.238 31.07,34.338C33.213,35.438 35.064,37.034 36.467,38.993C32.968,41.911 28.556,43.506 24,43.5Z" clip-rule="evenodd" fill-rule="evenodd" fill="#FFFFFF"/>
</svg>
