<svg width="46" height="32" viewBox="0 0 46 32" fill="none" xmlns="http://www.w3.org/2000/svg" xmlns:xlink="http://www.w3.org/1999/xlink">
<path d="M44.388,14.219C44.321,14.073 42.747,10.578 39.27,7.101C34.618,2.456 28.755,0 22.286,0C15.817,0 9.954,2.456 5.307,7.101C1.831,10.578 0.256,14.073 0.185,14.219C0.063,14.495 0,14.793 0,15.095C0,15.396 0.063,15.695 0.185,15.971C0.251,16.118 1.825,19.611 5.304,23.088C9.954,27.733 15.817,30.188 22.286,30.188C28.755,30.188 34.618,27.733 39.263,23.088C42.742,19.611 44.316,16.118 44.382,15.971C44.505,15.695 44.569,15.397 44.57,15.095C44.571,14.794 44.509,14.495 44.388,14.219ZM36.111,20.148C32.253,23.947 27.603,25.875 22.286,25.875C16.969,25.875 12.319,23.947 8.466,20.147C6.95,18.647 5.646,16.947 4.591,15.094C5.647,13.242 6.951,11.542 8.466,10.043C12.321,6.241 16.969,4.313 22.286,4.313C27.603,4.313 32.252,6.241 36.106,10.043C37.622,11.542 38.926,13.242 39.982,15.094C38.926,16.947 37.622,18.646 36.106,20.147L36.111,20.148ZM22.286,7.188C20.722,7.188 19.194,7.651 17.894,8.52C16.594,9.389 15.58,10.623 14.982,12.068C14.383,13.513 14.227,15.103 14.532,16.636C14.837,18.17 15.59,19.579 16.696,20.684C17.801,21.79 19.21,22.543 20.744,22.848C22.277,23.153 23.867,22.997 25.312,22.398C26.756,21.8 27.991,20.786 28.86,19.486C29.729,18.186 30.192,16.657 30.192,15.094C30.19,12.998 29.356,10.988 27.874,9.506C26.392,8.024 24.382,7.19 22.286,7.188ZM22.286,18.688C21.575,18.688 20.881,18.477 20.29,18.082C19.699,17.687 19.238,17.126 18.966,16.469C18.694,15.812 18.623,15.09 18.761,14.393C18.9,13.696 19.242,13.055 19.745,12.553C20.248,12.05 20.888,11.708 21.585,11.569C22.282,11.43 23.005,11.502 23.661,11.774C24.318,12.046 24.879,12.506 25.274,13.097C25.669,13.688 25.88,14.383 25.88,15.094C25.88,16.047 25.501,16.961 24.827,17.635C24.153,18.309 23.239,18.688 22.286,18.688Z" fill="#868889"/>
</svg>
